**ABCDEFGHIJKLMNOPQRSTUVWXYZabcdefghijklmnopqrstuvwxyz**************************
**PARASOLID !"#$%&'()*+,-./:;<=>?@[\]^_`{|}~0123456789**************************
**PART1;
MC=AMD64;
MC_MODEL=Intel64 Family 6 Model 94 Stepping 3, GenuineIntel;
MC_ID=unknown;
OS=Windows_NT;
OS_RELEASE=unknown;
FRU=Parasolid Version 30.0, build 226,  7-26-2017;
APPL=SOLIDWORKS 2018-2017284;
SITE=;
USER=unknown;
FORMAT=text;
GUISE=transmit;
KEY=≤Ê≥µÀ‹¡œ’ª∞Â;
FILE=≤Ê≥µÀ‹¡œ’ª∞Â.x_t;
DATE=Tue Jul 31 10:07:24 2018;
**PART2;
SCH=SCH_3000226_30000;
USFLD_SIZE=0;
**PART3;
**END_OF_HEADER*****************************************************************
T51 : TRANSMIT FILE created by modeller version 300022615 SCH_800000_80080 12 1
 1631 2 3 0 0 0 4 1e3 1e-8 0 5 0 2 0 1 6 7 8 9 10 11 12 81 2 2 1295 13 1 0 0 0 0
 14 0 70 3 0 1 0 0 4 3 20 8 15 15 1 102 12 4 ≤Ê≥µÀ‹¡œ’ª∞Â13 6 94 0 1 0 16 0 0 17
 0 50 7 89 0 18 19 0 0 +-.5 .075 .6 1 0 0 0 0 -1 30 8 461 0 11 20 0 0 +-.06 .05
 -.42 -1110223024625156e-31 1 0 29 9 671 0 12 21 0 -.5 -.04 -.42 19 10 28 0 1 17
 0 22 V16 11 459 0 ?23 0 24 8 0 0 1 18 12 669 0 25 0 26 9 ?1 17 25 27 28 29 12 3
0 31 0 32 +18 26 649 0 33 12 34 21 ?1 17 33 35 36 37 26 38 39 0 40 +18 34 629 0
 41 26 42 43 ?1 29 21 651 0 26 43 9 -.5 -.04 .1 29 43 631 0 34 44 21 .5 -.04 -.1
 29 44 611 0 42 45 43 .5 -.04 .42 18 42 609 0 46 34 47 44 ?1 29 45 600 0 47 48 4
4 .06 -.04 -.1 18 47 598 0 49 42 50 45 ?1 29 48 589 0 50 51 45 .06 -.04 .42 18 5
0 587 0 52 47 53 48 ?1 29 51 546 0 53 54 48 .4 -.04 -.42 18 53 544 0 55 50 56 51
 ?1 29 54 535 0 56 57 51 .4 -.04 .1 18 56 533 0 58 53 59 54 ?1 29 57 512 0 59 60
 54 -.4 -.04 -.1 18 59 510 0 61 56 62 57 ?1 29 60 501 0 62 63 57 -.4 -.04 .42 18
 62 499 0 64 59 65 60 ?1 29 63 455 0 65 66 60 -.06 -.04 -.42 18 65 453 0 67 62 6
8 63 ?1 29 66 441 0 68 69 63 -.06 -.04 .1 18 68 439 0 70 65 71 66 ?1 29 69 144 0
 71 72 66 -.06 -.075 -.6 18 71 142 0 73 68 74 69 ?1 29 72 138 0 74 75 69 .4 -.07
5 -.6 18 74 136 0 76 71 77 72 ?1 29 75 70 0 78 79 72 -.5 -.075 -.6 18 78 61 0 80
 81 82 75 ?1 29 79 71 0 82 83 75 .5 -.075 -.6 18 82 62 0 84 78 85 79 ?1 29 83 72
 0 85 86 79 .5 -.075 .6 18 85 63 0 87 82 88 83 ?1 29 86 73 0 88 89 83 -.5 -.075
 .6 18 88 64 0 90 85 91 86 ?1 29 89 27 0 77 92 86 -.5 .075 -.6 18 77 25 0 93 74
 94 89 ?1 29 92 24 0 94 95 89 .5 .075 -.6 18 94 22 0 96 77 97 92 ?1 29 95 21 0 9
7 98 92 .5 .075 .6 18 97 19 0 99 94 81 95 ?1 29 98 18 0 81 100 95 -.5 .075 .6 18
 81 16 0 101 97 78 98 ?1 29 100 374 0 102 103 98 .06 .05 -.6 18 102 305 0 104 10
5 106 100 ?1 29 103 375 0 106 107 100 .4 .05 -.6 18 106 307 0 108 102 109 103 ?1
 29 107 377 0 109 110 103 .06 .05 .6 18 109 306 0 111 106 112 107 ?1 29 110 378
 0 112 113 107 .4 .05 .6 18 112 308 0 114 109 115 110 ?1 29 113 379 0 115 116 11
0 .4 -.075 .6 18 115 310 0 117 112 118 113 ?1 29 116 380 0 118 119 113 .06 -.075
 .6 18 118 304 0 120 115 121 116 ?1 29 119 381 0 121 122 116 .06 -.075 -.6 18 12
1 311 0 123 118 124 119 ?1 29 122 382 0 91 125 119 -.4 .05 -.6 18 91 254 0 126 8
8 127 122 ?1 29 125 383 0 127 128 122 -.06 .05 -.6 18 127 256 0 129 91 130 125 ?
1 29 128 385 0 130 131 125 -.4 .05 .6 18 130 255 0 132 127 133 128 ?1 29 131 386
 0 133 134 128 -.06 .05 .6 18 133 257 0 135 130 136 131 ?1 29 134 387 0 136 137
 131 -.06 -.075 .6 18 136 259 0 138 133 139 134 ?1 29 137 388 0 139 140 134 -.4
 -.075 .6 18 139 253 0 141 136 105 137 ?1 29 140 389 0 105 142 137 -.4 -.075 -.6
 18 105 260 0 143 139 102 140 ?1 29 142 1094 0 124 144 140 -.4 .05 -.42 18 124 7
67 0 145 121 146 142 ?1 29 144 1095 0 146 147 142 -.06 .05 -.42 18 146 748 0 148
 124 149 144 ?1 29 147 1096 0 149 150 144 .06 .05 -.42 18 149 753 0 151 146 152
 147 ?1 29 150 1097 0 152 153 147 .4 .05 -.42 18 152 749 0 154 149 155 150 ?1 29
 153 1098 0 155 156 150 -.4 .05 -.1 18 155 769 0 157 152 158 153 ?1 29 156 1099
 0 158 159 153 -.06 .05 -.1 18 158 755 0 160 155 161 156 ?1 29 159 1100 0 161 16
2 156 .06 .05 -.1 18 161 759 0 163 158 164 159 ?1 29 162 1101 0 164 165 159 .4 .
05 -.1 18 164 756 0 166 161 167 162 ?1 29 165 1103 0 167 168 162 -.06 -.04 -.1 1
8 167 760 0 169 164 170 165 ?1 29 168 1105 0 170 171 165 .4 -.04 -.1 18 170 761
 0 172 167 173 168 ?1 29 171 1106 0 173 174 168 -.4 -.04 -.42 18 173 751 0 175 1
70 176 171 ?1 29 174 1108 0 176 177 171 .06 -.04 -.42 18 176 747 0 178 173 179 1
74 ?1 29 177 1110 0 179 180 174 -.4 .05 .1 18 179 938 0 181 176 182 177 ?1 29 18
0 1111 0 182 183 177 -.06 .05 .1 18 182 919 0 184 179 185 180 ?1 29 183 1112 0 1
85 186 180 .06 .05 .1 18 185 924 0 187 182 188 183 ?1 29 186 1113 0 188 189 183
 .4 .05 .1 18 188 920 0 190 185 191 186 ?1 29 189 1114 0 191 192 186 -.4 .05 .42
 18 191 940 0 193 188 194 189 ?1 29 192 1115 0 194 195 189 -.06 .05 .42 18 194 9
26 0 196 191 197 192 ?1 29 195 1116 0 197 198 192 .06 .05 .42 18 197 930 0 199 1
94 200 195 ?1 29 198 1117 0 200 201 195 .4 .05 .42 18 200 927 0 202 197 203 198
 ?1 29 201 1119 0 203 204 198 -.06 -.04 .42 18 203 931 0 205 200 206 201 ?1 29 2
04 1121 0 206 207 201 .4 -.04 .42 18 206 932 0 208 203 209 204 ?1 29 207 1122 0
 209 210 204 -.4 -.04 .1 18 209 922 0 211 206 212 207 ?1 29 210 1124 0 212 213 2
07 .06 -.04 .1 18 212 918 0 214 209 215 210 ?1 29 213 1126 0 216 217 210 -.5 .05
 .1 18 216 929 0 37 218 219 213 ?1 29 217 1127 0 219 220 213 -.5 .05 .42 18 219
 934 0 221 216 222 217 ?1 29 220 1128 0 222 223 217 -.5 -.04 .42 18 222 937 0 22
4 219 0 220 ?1 29 223 1130 0 225 226 220 .5 .05 .1 18 225 921 0 227 228 229 223
 ?1 29 226 1131 0 229 230 223 .5 .05 .42 18 229 928 0 231 225 218 226 ?1 29 230
 1133 0 218 232 226 .5 -.04 .1 18 218 936 0 233 229 216 230 ?1 29 232 1134 0 234
 235 230 -.5 .05 -.42 18 234 758 0 29 236 237 232 ?1 29 235 1135 0 237 238 232 -
.5 .05 -.1 18 237 763 0 239 234 228 235 ?1 29 238 1136 0 228 240 235 -.5 -.04 -.
1 18 228 766 0 241 237 225 238 ?1 29 240 1138 0 215 242 238 .5 .05 -.42 18 215 7
50 0 243 212 244 240 ?1 29 242 1139 0 244 245 240 .5 .05 -.1 18 244 757 0 246 21
5 236 242 ?1 29 245 1141 0 236 0 242 .5 -.04 -.42 18 236 765 0 247 244 234 245 ?
1 17 247 248 249 250 236 55 251 0 252 -15 248 778 0 247 253 0 17 249 248 154 247
 215 254 255 0 256 -17 250 248 247 154 53 257 258 0 259 -17 55 260 172 252 53 24
7 251 0 250 +16 251 690 0 ?55 261 262 263 264 262 1 17 252 260 55 265 236 266 26
7 0 254 -15 260 826 0 265 268 0 17 265 260 252 172 34 269 270 0 266 -17 266 271
 272 254 34 252 267 0 0 +16 267 725 0 ?266 273 255 274 0 0 1 17 254 271 266 256
 236 249 255 0 0 +15 271 627 0 256 275 276 17 256 271 254 272 215 277 278 0 0 +1
6 255 692 0 ?254 267 279 280 0 0 1 16 279 744 0 ?281 255 282 283 0 0 1 30 280 10
93 0 255 0 274 0 +.5 -.04 -.42 0 -1 0 30 274 1092 0 267 280 284 0 +.5 -.04 -.1 0
 1301042606982606e-31 1 30 284 1091 0 273 274 285 0 +.5 -.04 -.1 0 1 0 16 273 71
4 0 ?272 278 267 284 0 0 1 30 285 1090 0 278 284 286 0 +.5 .05 -.1 0 -1301042606
982606e-31 -1 16 278 703 0 ?256 264 273 285 0 0 1 30 286 1089 0 31 285 287 0 +-.
5 -.04 -.42 0 -1 0 16 31 735 0 ?25 288 289 286 0 0 1 30 287 1088 0 288 286 290 0
 +-.5 -.04 -.1 0 1301042606982606e-31 1 16 288 738 0 ?291 282 31 287 0 0 1 30 29
0 1087 0 282 287 283 0 +-.5 -.04 -.1 0 1 0 16 282 741 0 ?292 279 288 290 0 0 1 3
0 283 1086 0 279 290 293 0 +-.5 .05 -.1 0 -1301042606982606e-31 -1 30 293 1085 0
 294 283 295 0 +.5 .05 -.42 -1 0 0 16 294 701 0 ?154 296 297 293 298 297 1 30 29
5 1084 0 299 293 300 0 +.5 .05 -.1 -1 0 0 16 299 712 0 ?301 298 302 295 303 302
 1 30 300 1083 0 270 295 263 0 +.5 -.04 -.1 -1 0 0 16 270 723 0 ?269 303 304 300
 261 304 1 30 263 1082 0 251 300 305 0 +.5 -.04 -.42 -1 0 0 30 305 1081 0 306 26
3 307 0 +.5 -.04 .1 0 -1 0 16 306 863 0 ?308 309 310 305 0 0 1 30 307 1080 0 309
 305 311 0 +.5 -.04 .1 0 1084202172485504e-31 1 16 309 896 0 ?312 313 306 307 0
 0 1 30 311 1079 0 313 307 314 0 +.5 -.04 .42 0 1 0 16 313 885 0 ?315 316 309 31
1 0 0 1 30 314 1078 0 316 311 317 0 +.5 .05 .1 0 -1084202172485504e-31 -1 16 316
 874 0 ?318 319 313 314 0 0 1 30 317 1077 0 39 314 320 0 +-.5 -.04 .1 0 -1 0 16
 39 906 0 ?33 321 0 317 0 0 1 30 320 1076 0 321 317 322 0 +-.5 -.04 .1 0 1084202
172485504e-31 1 16 321 909 0 ?323 324 39 320 0 0 1 30 322 1075 0 324 320 325 0 +
-.5 -.04 .42 0 1 0 16 324 912 0 ?326 310 321 322 0 0 1 30 325 1074 0 310 322 327
 0 +-.5 .05 .1 0 -1084202172485504e-31 -1 16 310 915 0 ?328 306 324 325 0 0 1 30
 327 1073 0 289 325 329 0 +.5 .05 .1 -1 0 0 16 289 872 0 ?190 31 330 327 331 330
 1 30 329 1072 0 332 327 333 0 +.5 .05 .42 -1 0 0 16 332 883 0 ?334 331 335 329
 336 335 1 30 333 1071 0 337 329 338 0 +.5 -.04 .42 -1 0 0 16 337 894 0 ?339 336
 340 333 341 340 1 30 338 1070 0 342 333 343 0 +.5 -.04 .1 -1 0 0 16 342 861 0 ?
58 341 344 338 319 344 1 30 343 1069 0 296 338 345 0 +-.4 -.04 -.600001 0 108420
2172485504e-31 1 16 296 899 0 ?346 347 294 343 0 0 1 30 345 1068 0 347 343 348 0
 +.4 -.04 -.600001 0 -1084202172485504e-31 -1 16 347 895 0 ?349 350 296 345 0 0
 1 30 348 1067 0 350 345 351 0 +.06 -.04 -.600001 -1203706215242022e-47 10842021
72485504e-31 1 16 350 891 0 ?352 353 347 348 0 0 1 30 351 1066 0 353 348 354 0 +
-.4 .05 .42 0 1 0 16 353 888 0 ?355 356 350 351 0 0 1 30 354 1065 0 356 351 357
 0 +.4 .05 .42 0 -1 0 16 356 884 0 ?358 359 353 354 0 0 1 30 357 1064 0 359 354
 360 0 +.06 .05 .42 -1110223024625156e-31 1 0 16 359 880 0 ?361 362 356 357 0 0
 1 30 360 1059 0 362 357 363 0 +-.4 .05 .1 0 -1 0 16 362 866 0 ?364 365 359 360
 0 0 1 30 363 1058 0 365 360 366 0 +.4 .05 .1 0 1 0 16 365 862 0 ?367 368 362 36
3 0 0 1 30 366 1057 0 368 363 369 0 +.06 .05 .1 1110223024625156e-31 -1 0 16 368
 858 0 ?370 371 365 366 0 0 1 30 369 1056 0 371 366 372 0 +-.4 -.04 -.600001 0 1
301042606982606e-31 1 16 371 728 0 ?373 374 368 369 0 0 1 30 372 1055 0 374 369
 375 0 +.4 -.04 -.600001 0 -1301042606982606e-31 -1 16 374 724 0 ?259 376 371 37
2 0 0 1 30 375 1054 0 376 372 377 0 +.06 -.04 -.600001 -1444447458290426e-47 130
1042606982606e-31 1 16 376 720 0 ?378 379 374 375 0 0 1 30 377 1053 0 379 375 38
0 0 +-.4 .05 -.1 0 1 0 16 379 717 0 ?381 382 376 377 0 0 1 30 380 1052 0 382 377
 383 0 +.4 .05 -.1 0 -1 0 16 382 713 0 ?384 385 379 380 0 0 1 30 383 1051 0 385
 380 386 0 +.06 .05 -.1 -1110223024625156e-31 1 0 16 385 709 0 ?387 388 382 383
 0 0 1 30 386 1046 0 388 383 389 0 +-.4 .05 -.42 0 -1 0 16 388 695 0 ?390 258 38
5 386 0 0 1 30 389 1045 0 258 386 391 0 +.4 .05 -.42 0 1 0 16 258 691 0 ?257 392
 388 389 0 0 1 30 391 1044 0 392 389 393 0 +.06 .05 -.42 1110223024625156e-31 -1
 0 16 392 687 0 ?394 395 258 391 0 0 1 30 393 372 0 396 391 397 0 +-.06 .05 -.6
 1110223024625156e-31 -1 -2465190328815665e-47 16 396 252 0 ?73 398 399 393 0 0
 1 30 397 371 0 398 393 400 0 +-.06 .05 -.6 1 1224510688924804e-31 -222044604925
0315e-31 16 398 251 0 ?401 402 396 397 0 0 1 30 400 370 0 402 397 403 0 +-.4 .05
 -.6 0 1 0 16 402 250 0 ?404 405 398 400 0 0 1 30 403 369 0 405 400 406 0 +-.4 .
05 .6 0 -1 0 16 405 237 0 ?141 407 402 403 0 0 1 30 406 367 0 407 403 408 0 +-.0
6 .05 .6 -1110223024625156e-31 1 0 16 407 243 0 ?409 410 405 406 0 0 1 30 408 36
6 0 410 406 411 0 +-.06 .05 .6 -1 -1224510688924804e-31 0 16 410 246 0 ?412 413
 407 408 0 0 1 30 411 365 0 414 408 415 0 +-.4 .05 -.600001 0 0 1 16 414 234 0 ?
416 417 418 411 419 418 1 30 415 364 0 420 411 421 0 +-.06 .05 -.600001 0 0 1 16
 420 235 0 ?422 419 423 415 424 423 1 30 421 363 0 425 415 426 0 +-.06 -.075 -.6
00001 0 0 1 16 425 236 0 ?138 424 413 421 0 0 1 30 426 362 0 413 421 427 0 +-.4
 -.075 -.600001 0 0 1 16 413 233 0 ?428 425 410 426 0 0 1 30 427 360 0 395 426 4
29 0 +.4 .05 -.6 0 -1 0 16 395 303 0 ?76 430 392 427 0 0 1 30 429 359 0 430 427
 431 0 +.06 .05 -.6 1 1224510688924804e-31 -2220446049250315e-31 16 430 302 0 ?4
32 433 395 429 0 0 1 30 431 358 0 433 429 434 0 +.06 .05 -.6 -1110223024625156e-
31 1 2465190328815665e-47 16 433 301 0 ?435 436 430 431 0 0 1 30 434 357 0 436 4
31 437 0 +.06 .05 .6 1110223024625156e-31 -1 0 16 436 288 0 ?120 438 433 434 0 0
 1 30 437 355 0 438 434 439 0 +.4 .05 .6 0 1 0 16 438 294 0 ?440 441 436 437 0 0
 1 30 439 354 0 441 437 442 0 +.06 .05 .6 -1 -1224510688924804e-31 0 16 441 297
 0 ?443 444 438 439 0 0 1 30 442 353 0 399 439 445 0 +.06 .05 -.600001 0 0 1 16
 399 285 0 ?446 396 447 442 448 447 1 30 445 352 0 449 442 450 0 +.4 .05 -.60000
1 0 0 1 16 449 286 0 ?451 448 452 445 453 452 1 30 450 351 0 454 445 455 0 +.4 -
.075 -.600001 0 0 1 16 454 287 0 ?117 453 444 450 0 0 1 30 455 350 0 444 450 456
 0 +.06 -.075 -.600001 0 0 1 16 444 284 0 ?457 454 441 455 0 0 1 30 456 5 0 458
 455 459 0 +-.5 .075 .6 0 0 1 16 458 4 0 ?460 461 462 456 0 0 1 30 459 8 0 461 4
56 463 0 +.5 .075 .6 1 0 -2220446049250315e-31 16 461 7 0 ?99 464 458 459 0 0 1
 30 463 11 0 464 459 465 0 +.5 .075 .6 -462592926927149e-31 0 -1 16 464 10 0 ?96
 466 461 463 0 0 1 30 465 14 0 466 463 467 0 +.5 .075 -.6 -1 0 2220446049250315e
-31 16 466 13 0 ?93 468 464 465 0 0 1 30 467 69 0 417 465 469 0 +-.5 -.075 .6 0
 0 1 16 417 57 0 ?470 471 414 467 0 0 1 30 469 68 0 472 467 473 0 +.5 -.075 .6 1
 0 -2220446049250315e-31 16 472 53 0 ?474 475 476 469 471 476 1 30 473 67 0 475
 469 477 0 +.5 -.075 .6 -462592926927149e-31 0 -1 16 475 49 0 ?84 478 472 473 0
 0 1 30 477 66 0 462 473 479 0 +.5 -.075 -.6 -1 0 2220446049250315e-31 16 462 45
 0 ?480 458 481 477 478 481 1 30 479 90 0 468 477 482 0 +-.5 .075 -.6 0 -1 0 16
 468 74 0 ?483 484 466 479 0 0 1 30 482 91 0 484 479 485 0 +.5 .075 -.6 0 -1 0 1
6 484 75 0 ?486 487 468 482 0 0 1 30 485 92 0 487 482 488 0 +.5 .075 .6 0 -1 0 1
6 487 76 0 ?489 490 484 485 0 0 1 30 488 93 0 490 485 491 0 +-.5 .075 .6 0 -1 0
 16 490 77 0 ?492 493 487 488 0 0 1 30 491 442 0 493 488 494 0 +-.06 -.04 -.6000
01 1203706215242022e-47 -1084202172485504e-31 -1 16 493 440 0 ?495 496 490 491 0
 0 1 30 494 444 0 496 491 497 0 +-.06 .05 .42 1110223024625156e-31 -1 0 16 496 4
43 0 ?498 499 493 494 0 0 1 30 497 447 0 499 494 500 0 +-.06 .05 .1 -11102230246
25156e-31 1 0 16 499 445 0 ?501 502 496 497 0 0 1 30 500 456 0 502 497 20 0 +-.0
6 -.04 -.600001 1444447458290426e-47 -1301042606982606e-31 -1 16 502 454 0 ?503
 24 499 500 0 0 1 30 20 458 0 24 500 8 0 +-.06 .05 -.1 1110223024625156e-31 -1 0
 16 24 457 0 ?504 11 502 20 0 0 1 17 504 505 503 506 167 160 24 0 0 +15 505 272
 0 503 507 0 17 503 505 23 504 65 169 502 0 0 +17 506 505 504 501 158 508 423 0
 0 -17 160 509 163 510 158 504 24 0 511 -15 509 806 0 510 512 0 17 163 509 513 1
60 161 511 302 0 387 -17 510 509 160 513 167 49 304 0 504 +17 511 514 508 515 15
8 163 302 0 506 +15 514 268 0 515 516 0 17 508 514 517 511 182 506 423 0 0 +17 5
15 514 511 517 161 518 447 0 0 -16 302 710 0 ?511 299 303 295 299 303 1 16 303 7
18 0 ?239 302 270 295 302 299 1 17 239 519 281 520 237 157 303 0 292 +15 519 119
4 0 521 516 514 17 281 519 522 239 234 523 279 0 30 +17 520 519 239 524 155 525
 418 0 0 -17 157 526 527 292 155 239 303 0 381 -17 292 526 157 241 237 528 282 0
 523 +15 526 814 0 241 529 0 17 241 526 292 527 228 61 261 0 291 +17 528 530 531
 523 228 292 282 0 0 -17 523 530 528 30 237 281 279 0 0 -15 530 667 0 531 18 532
 17 30 530 523 531 234 25 31 0 0 -17 531 530 30 528 12 291 288 0 0 -17 291 533 6
1 32 228 531 288 0 528 +15 533 830 0 32 534 0 17 61 533 175 291 59 241 261 0 527
 -17 32 533 291 175 12 28 264 0 531 +17 175 533 32 61 173 373 371 0 28 -17 28 27
 145 25 173 32 264 0 390 -16 264 696 0 ?32 262 278 263 262 251 1 16 262 688 0 ?6
7 251 264 263 251 264 1 17 67 535 169 178 65 536 262 0 537 +15 535 822 0 67 538
 0 17 169 535 49 67 167 503 502 0 510 -17 178 535 67 49 176 378 376 0 536 -17 53
6 539 151 537 176 67 262 0 394 -17 537 539 536 148 65 23 11 0 503 -15 539 774 0
 148 540 0 17 148 539 537 151 146 521 297 0 23 +17 23 505 129 503 146 537 11 0 4
22 +17 129 505 73 23 127 422 420 0 401 -17 422 519 521 401 146 129 420 0 0 +17 5
21 519 104 422 149 148 297 0 446 -17 401 519 422 126 127 541 398 0 542 +17 126 5
19 401 522 91 416 414 0 404 -17 541 543 544 542 91 401 398 0 0 -17 542 543 541 5
45 127 73 396 0 0 -15 543 78 0 541 546 0 17 545 543 542 547 71 548 481 0 0 +17 7
3 505 138 129 71 542 396 0 549 +17 138 505 409 73 136 549 425 0 550 +17 549 551
 548 552 71 138 425 0 545 -15 551 161 0 552 553 0 17 548 551 457 549 121 545 481
 0 0 -17 552 551 549 457 136 554 476 0 0 -17 457 551 552 548 118 123 444 0 554 +
17 554 555 556 550 118 552 476 0 0 +16 476 152 0 ?554 472 471 469 472 471 1 16 4
71 158 0 ?87 476 417 469 476 472 1 17 87 555 557 558 85 559 471 0 489 +15 555 82
 0 474 560 0 17 557 555 101 87 97 489 487 0 561 -17 558 555 87 562 115 440 438 0
 559 -17 559 563 564 565 115 87 471 0 0 -17 489 566 84 561 85 557 487 0 565 +15
 566 80 0 84 275 0 17 84 566 567 489 82 565 475 0 486 +17 561 566 489 567 97 96
 464 0 0 -17 565 563 559 568 85 84 475 0 0 -15 563 44 0 559 569 0 17 568 563 565
 564 82 480 462 0 0 -17 564 563 568 559 74 117 454 0 480 -17 480 543 570 486 74
 568 462 0 0 +17 570 543 571 480 106 76 395 0 0 -17 486 543 480 572 82 567 484 0
 568 +17 572 543 486 573 94 93 466 0 0 -17 567 566 561 84 94 486 484 0 572 -17 5
73 543 572 80 77 483 468 0 574 -17 93 575 460 96 77 572 466 0 573 +15 575 3 0 46
0 576 0 17 460 575 99 93 81 574 458 0 577 +17 96 575 93 99 94 561 464 0 567 +17
 99 575 96 460 97 101 461 0 557 +17 101 555 492 557 81 99 461 0 460 -17 492 555
 474 101 88 577 490 0 470 +17 474 555 578 492 139 90 472 0 0 +17 577 579 574 470
 81 492 490 0 0 -17 470 579 577 483 88 580 417 0 0 +15 579 84 0 470 18 0 17 483
 579 470 574 78 573 468 0 580 +17 580 581 582 90 78 470 417 0 0 -15 581 171 0 58
2 16 0 17 582 581 428 580 105 80 478 0 0 -17 90 581 580 428 88 474 472 0 492 -17
 428 581 90 582 139 143 413 0 474 +17 143 583 404 141 105 428 413 0 544 -15 583
 508 0 416 584 0 17 404 583 416 143 91 544 402 0 541 +17 141 583 143 132 139 578
 405 0 428 +17 544 543 80 541 105 404 402 0 582 -17 80 543 573 544 78 582 478 0
 483 +16 478 146 0 ?80 481 475 477 481 462 1 16 481 140 0 ?545 462 478 477 462 4
78 1 17 132 583 141 355 130 585 419 0 412 +17 578 555 586 474 130 141 405 0 0 -1
7 586 555 550 578 133 412 410 0 0 -17 550 555 554 586 136 409 407 0 552 -17 412
 519 585 135 130 586 410 0 578 +17 585 519 221 412 191 132 419 0 0 -17 135 519 4
12 587 133 588 424 0 409 +17 587 519 135 589 194 199 335 0 588 +17 588 505 498 4
09 194 135 424 0 0 -16 424 434 0 ?135 423 425 415 423 420 1 17 409 505 588 138 1
33 550 407 0 586 +16 423 428 0 ?508 420 424 415 420 424 1 17 498 505 495 588 203
 196 496 0 0 +17 495 505 501 498 68 205 493 0 0 +17 196 590 199 591 194 498 496
 0 587 -15 590 977 0 591 592 0 17 199 590 593 196 197 587 335 0 361 -17 591 590
 196 593 203 52 340 0 498 +17 593 590 591 199 50 361 359 0 352 -17 52 594 214 20
5 50 591 340 0 593 -16 340 892 0 ?591 337 341 333 337 341 1 16 341 900 0 ?224 34
0 342 333 340 337 1 17 224 595 326 596 222 64 341 0 323 +15 595 985 0 224 597 0
 17 326 595 193 224 219 598 324 0 599 +17 596 595 224 193 62 355 353 0 346 -17 6
4 600 211 323 62 224 341 0 596 -17 323 600 64 40 222 601 321 0 598 +15 600 1001
 0 40 602 0 17 40 600 323 211 26 36 319 0 601 +17 601 532 38 598 26 323 321 0 0
 -17 598 532 601 599 222 326 324 0 0 -15 532 647 0 601 18 579 17 599 532 598 38
 219 328 310 0 0 -17 38 532 599 601 216 33 39 0 0 -17 328 519 524 221 216 599 31
0 0 38 +17 524 519 520 328 179 37 331 0 525 -17 221 519 328 585 219 193 336 0 32
6 +17 193 595 596 326 191 221 336 0 355 -16 336 889 0 ?221 335 337 329 335 332 1
 16 335 881 0 ?587 332 336 329 332 336 1 17 355 583 132 346 191 596 353 0 585 +1
7 346 583 355 364 62 211 296 0 0 +17 364 583 346 525 209 181 362 0 0 +17 211 600
 40 64 209 346 296 0 36 -17 36 35 181 33 209 40 319 0 364 -15 35 953 0 37 603 0
 17 181 35 37 36 179 364 362 0 524 -16 319 867 0 ?40 344 316 338 344 342 1 16 34
4 859 0 ?70 342 319 338 342 319 1 17 70 594 205 214 68 604 344 0 605 +15 594 993
 0 70 606 0 17 205 594 52 70 203 495 493 0 591 -17 214 594 70 52 212 352 350 0 6
04 -17 604 607 187 605 212 70 344 0 370 -17 605 607 604 184 68 501 499 0 495 -15
 607 945 0 184 608 0 17 184 607 605 187 182 517 330 0 501 +17 501 505 506 495 18
2 605 499 0 508 +17 187 607 184 604 185 370 368 0 517 -17 517 514 515 508 185 18
4 330 0 518 -16 330 870 0 ?184 289 331 327 289 331 1 16 331 878 0 ?37 330 332 32
7 330 289 1 17 37 35 33 181 216 524 331 0 328 +17 518 609 370 387 185 515 447 0
 0 +15 609 596 0 446 610 0 17 370 609 352 518 212 187 368 0 0 +17 387 609 518 37
8 161 513 385 0 515 +16 447 556 0 ?518 399 448 442 399 448 1 16 448 562 0 ?111 4
47 449 442 447 399 1 17 111 609 120 361 109 589 448 0 443 +17 120 609 123 111 11
8 556 436 0 457 +17 361 609 111 352 197 593 359 0 589 +17 589 519 587 443 197 11
1 448 0 0 -17 443 519 589 114 109 562 441 0 556 +17 114 519 443 334 112 611 453
 0 440 +17 562 555 558 556 112 443 441 0 0 -17 556 555 562 554 109 120 436 0 0 -
17 334 519 114 612 200 231 332 0 611 +17 611 613 358 440 200 114 453 0 0 -16 453
 528 0 ?114 452 454 445 452 449 1 17 440 613 611 117 112 558 438 0 562 +15 613 3
23 0 259 614 0 17 117 613 440 76 115 564 454 0 558 +17 76 613 117 108 74 570 395
 0 564 +17 108 613 76 257 106 451 449 0 432 -17 257 613 108 259 152 250 258 0 45
1 +17 451 519 243 432 152 108 449 0 0 +17 432 519 451 104 106 571 430 0 570 +17
 104 519 432 521 102 446 399 0 435 -17 571 543 547 570 102 432 430 0 0 -17 547 5
43 545 571 121 435 433 0 548 -17 435 609 446 123 102 547 433 0 571 +17 446 609 3
94 435 149 104 399 0 0 +17 123 609 435 120 121 457 444 0 547 -17 394 609 378 446
 176 151 392 0 0 +17 378 609 387 394 47 178 376 0 0 +17 151 539 148 536 149 394
 392 0 521 -17 243 519 277 451 215 154 294 0 249 -17 277 519 301 243 244 256 278
 0 272 -17 154 248 250 249 152 243 294 0 257 +17 301 519 615 277 164 246 299 0 6
16 +17 272 271 256 266 244 41 273 0 0 +17 41 617 269 246 34 272 273 0 265 -15 61
7 810 0 246 618 0 17 269 617 166 41 170 265 270 0 384 +17 246 617 41 166 244 301
 299 0 277 -17 166 617 246 269 164 384 382 0 301 -17 384 613 259 616 170 166 382
 0 0 +17 259 613 257 384 53 172 374 0 0 +17 616 613 384 367 164 615 452 0 0 -17
 367 613 616 349 188 619 365 0 615 +17 615 519 227 301 188 616 452 0 0 +16 452 5
22 0 ?615 449 453 445 449 453 1 17 227 519 612 615 225 190 289 0 620 -17 612 519
 334 227 229 318 316 0 315 -17 190 621 619 620 188 227 289 0 367 +17 620 621 190
 233 225 308 306 0 318 -15 621 949 0 233 622 0 17 233 621 620 619 218 58 342 0 6
23 -17 308 276 312 318 218 620 306 0 0 +17 318 276 308 315 225 612 316 0 0 +15 2
76 607 0 318 275 566 17 315 276 318 312 229 46 313 0 0 +17 312 276 315 308 42 62
3 309 0 0 +17 46 624 339 231 42 315 313 0 625 -15 624 981 0 231 626 0 17 339 624
 202 46 206 625 337 0 358 +17 231 624 46 202 229 334 332 0 612 -17 625 627 623 2
08 42 339 337 0 312 -15 627 997 0 625 628 0 17 623 627 58 625 218 312 309 0 308
 -17 208 627 625 58 206 349 347 0 339 -17 58 627 208 623 56 233 342 0 619 +17 34
9 613 367 358 56 208 347 0 0 +17 358 613 349 611 206 202 356 0 0 +17 202 624 231
 339 200 358 356 0 334 -17 619 621 233 190 56 367 365 0 349 -14 628 994 629 ?253
 626 627 6 630 -602 606 253 626 22 81 1 629 1601 631 628 632 0 0 633 634 14 253
 775 633 ?618 628 248 6 635 -636 540 618 628 22 14 626 978 637 ?628 622 624 6 63
8 -597 592 628 622 22 50 630 1033 0 606 638 639 0 +.5 -.04 .1 0 -1 1084202172485
504e-31 0 -1084202172485504e-31 -1 14 602 998 640 ?597 540 600 6 630 -606 628 59
7 540 22 14 606 990 641 ?592 507 594 6 630 -628 602 592 507 22 13 22 29 0 0 0 0
 0 0 10 16 14 16 173 642 ?553 0 581 6 643 -553 569 553 0 22 81 1 642 1606 631 16
 644 0 641 645 646 14 553 163 645 ?18 16 551 6 643 -569 16 18 16 22 50 643 65 0
 569 647 648 0 +0 -.075 0 0 1 0 0 0 1 14 569 43 649 ?610 576 563 6 643 -16 553 6
10 576 22 81 1 649 1608 631 569 650 0 645 651 652 14 610 312 651 ?614 569 609 6
 653 -0 0 614 569 22 14 576 1 654 ?569 546 575 6 647 +0 0 569 546 22 81 1 654 16
10 631 576 655 0 651 656 657 14 546 79 656 ?576 275 543 6 648 -0 0 576 275 22 50
 647 2 0 576 653 643 0 +0 .075 0 0 1 0 0 0 1 50 653 338 0 610 658 647 0 +.06 .05
 -.600001 -1 -1110223024625156e-31 0 1110223024625156e-31 -1 0 50 658 340 0 614
 659 653 0 +.4 .05 -.600001 1 0 0 0 0 -1 14 614 320 660 ?584 610 613 6 658 -0 0
 584 610 22 50 659 344 0 584 661 658 0 +-.4 .05 -.600001 -1 0 0 0 0 1 14 584 261
 662 ?516 614 583 6 659 -0 0 516 614 22 50 661 346 0 507 663 659 0 +-.06 .05 -.6
00001 1 1110223024625156e-31 0 -1110223024625156e-31 1 0 14 507 269 664 ?606 516
 505 6 661 -0 0 606 516 22 50 663 347 0 516 639 661 0 +-.06 .05 -.600001 -122451
0688924804e-31 1 0 -1 -1224510688924804e-31 0 14 516 265 665 ?507 584 519 6 663
 -0 0 507 584 22 50 639 1032 0 608 630 663 0 +.5 -.04 .1 0 0 -1 -1 0 0 14 608 94
2 666 ?538 592 607 6 639 -622 603 538 592 22 81 1 666 1616 631 608 667 0 665 668
 669 14 538 819 668 ?512 608 535 6 670 -268 534 512 608 22 14 592 974 671 ?608 6
06 590 6 638 -626 597 608 606 22 14 622 946 672 ?626 636 621 6 639 -603 608 626
 636 22 14 603 950 673 ?534 597 35 6 639 -608 622 534 597 22 81 1 673 1620 631 6
03 674 0 672 675 676 14 534 827 675 ?529 603 533 6 670 -538 268 529 603 22 14 59
7 982 677 ?603 602 595 6 638 -592 626 603 602 22 81 1 677 1622 631 597 678 0 675
 679 680 50 638 1034 0 592 635 630 0 +.5 -.04 .42 0 0 1 1 0 0 50 635 1038 0 540
 670 638 0 +.5 -.04 -.42 0 0 -1 -1 0 0 14 540 771 679 ?602 512 539 6 635 -253 63
6 602 512 22 50 670 1039 0 538 681 635 0 +.5 -.04 -.1 0 -1 1301042606982606e-31
 0 -1301042606982606e-31 -1 50 681 1040 0 512 0 670 0 +.5 -.04 -.1 0 0 1 1 0 0 1
4 512 803 682 ?540 538 509 6 681 -618 529 540 538 22 81 1 682 1624 631 512 683 0
 679 684 685 14 618 807 684 ?268 253 617 6 681 -529 512 268 253 22 14 529 811 68
6 ?636 534 526 6 681 -512 618 636 534 22 81 1 686 1626 631 529 687 0 684 688 689
 14 636 779 688 ?622 529 27 6 635 -540 253 622 529 22 81 1 688 1627 631 636 690
 0 686 691 692 15 27 782 0 29 636 0 17 29 27 25 145 234 522 298 0 281 +17 145 27
 29 28 124 390 388 0 522 -17 522 519 126 281 124 29 298 0 416 -16 298 707 0 ?29
 297 299 293 297 294 1 16 297 699 0 ?148 294 298 293 294 298 1 17 416 583 390 40
4 124 126 414 0 0 +17 390 583 373 416 173 145 388 0 0 +17 373 583 381 390 59 175
 371 0 0 +17 381 583 525 373 155 527 379 0 520 +17 525 583 364 381 179 520 418 0
 0 +17 527 526 241 157 59 381 379 0 373 -16 418 468 0 ?525 414 419 411 414 419 1
 16 419 474 0 ?132 418 420 411 418 414 1 80 1 631 693 694 9000 1 1 1 1 1 1 1 1 F
FFFTFTFFFFFF1 81 1 690 1527 695 636 0 688 687 696 697 81 1 691 1628 631 268 698
 0 688 699 700 82 1 692 -1889140432 14 268 823 691 ?0 618 260 6 670 -534 538 0 6
18 22 81 1 698 1533 695 268 0 691 701 0 702 81 1 699 1629 631 275 703 0 691 704
 705 82 1 700 -1897397968 14 275 81 699 ?546 560 271 6 706 -0 0 546 560 22 81 1
 703 1507 695 275 0 699 707 708 709 81 1 704 1630 631 560 707 0 699 710 711 82 1
 705 336724272 14 560 83 704 ?275 18 555 6 19 -0 0 275 18 22 81 1 707 1506 695 5
60 0 704 712 703 713 81 1 710 1631 631 18 712 0 704 0 714 82 1 711 336986409 14
 18 85 710 ?560 553 530 6 7 -0 0 560 553 22 81 1 712 1505 695 18 0 710 715 707 7
16 82 1 714 337248560 80 1 695 0 717 8001 0 0 0 0 3 5 0 0 FFFFTFTFFFFFF2 81 1 71
5 1504 695 553 0 645 644 712 718 83 3 716 .3098039215686275 .556862745098039 1 8
1 1 645 1607 631 553 715 0 642 649 719 81 1 644 1503 695 16 0 642 0 715 720 83 3
 718 .3098039215686275 .556862745098039 1 83 3 720 .3098039215686275 .5568627450
98039 1 82 1 719 1410269481 79 15 717 SDL/TYSA_COLOUR83 3 713 .3098039215686275
 .556862745098039 1 50 19 88 0 560 706 7 0 +.5 .075 .6 -2220446049250315e-31 0 -
1 -1 0 2220446049250315e-31 50 706 87 0 275 648 19 0 +.5 .075 .6 -1 0 4625929269
27149e-31 462592926927149e-31 0 1 50 648 86 0 546 643 706 0 +.5 .075 -.6 2220446
049250315e-31 0 1 1 0 -2220446049250315e-31 81 1 708 1508 695 546 0 656 703 655
 721 83 3 709 .3098039215686275 .556862745098039 1 81 1 656 1611 631 546 708 0 6
54 660 722 81 1 655 1509 695 576 0 654 708 650 723 83 3 721 .3098039215686275 .5
56862745098039 1 81 1 650 1510 695 569 0 649 655 724 725 83 3 723 .3098039215686
275 .556862745098039 1 81 1 724 1511 695 610 0 651 650 726 727 83 3 725 .3098039
215686275 .556862745098039 1 81 1 651 1609 631 610 724 0 649 654 728 81 1 726 15
12 695 614 0 660 724 729 730 83 3 727 .3098039215686275 .556862745098039 1 81 1
 660 1612 631 614 726 0 656 662 731 81 1 729 1513 695 584 0 662 726 732 733 83 3
 730 .3098039215686275 .556862745098039 1 81 1 662 1613 631 584 729 0 660 664 73
4 81 1 732 1514 695 516 0 665 729 735 736 83 3 733 .3098039215686275 .5568627450
98039 1 81 1 665 1615 631 516 732 0 664 666 737 81 1 735 1515 695 507 0 664 732
 738 739 83 3 736 .3098039215686275 .556862745098039 1 81 1 664 1614 631 507 735
 0 662 665 740 81 1 738 1516 695 606 0 641 735 741 742 83 3 739 .309803921568627
5 .556862745098039 1 81 1 641 1605 631 606 738 0 640 642 743 81 1 741 1517 695 5
92 0 671 738 667 744 83 3 742 .3098039215686275 .556862745098039 1 81 1 671 1618
 631 592 741 0 668 672 745 81 1 667 1518 695 608 0 666 741 746 747 83 3 744 .309
8039215686275 .556862745098039 1 81 1 746 1519 695 538 0 668 667 683 748 83 3 74
7 .3098039215686275 .556862745098039 1 81 1 668 1617 631 538 746 0 666 671 749 8
1 1 683 1520 695 512 0 682 746 750 751 83 3 748 .3098039215686275 .5568627450980
39 1 81 1 750 1521 695 540 0 679 683 752 753 83 3 751 .3098039215686275 .5568627
45098039 1 81 1 679 1623 631 540 750 0 677 682 754 81 1 752 1522 695 602 0 640 7
50 678 755 83 3 753 .3098039215686275 .556862745098039 1 81 1 640 1604 631 602 7
52 0 637 641 756 81 1 678 1523 695 597 0 677 752 674 757 83 3 755 .3098039215686
275 .556862745098039 1 81 1 674 1524 695 603 0 673 678 758 759 83 3 757 .3098039
215686275 .556862745098039 1 81 1 758 1525 695 534 0 675 674 687 760 83 3 759 .3
098039215686275 .556862745098039 1 81 1 675 1621 631 534 758 0 673 677 761 81 1
 687 1526 695 529 0 686 758 690 762 83 3 760 .3098039215686275 .556862745098039
 1 83 3 762 .3098039215686275 .556862745098039 1 82 1 761 -1897922256 81 1 637 1
603 631 626 763 0 633 640 764 82 1 756 -1911357136 81 1 763 1529 695 626 0 637 6
96 632 765 81 1 633 1602 631 253 766 0 629 637 767 82 1 764 -1907490512 81 1 766
 1531 695 253 0 633 632 701 768 82 1 767 -1888616144 81 1 632 1530 695 628 0 629
 763 766 769 81 1 701 1532 695 618 0 684 766 698 770 83 3 768 .3098039215686275
 .556862745098039 1 81 1 684 1625 631 618 701 0 682 686 771 83 3 770 .3098039215
686275 .556862745098039 1 82 1 771 -1894055632 83 3 769 .3098039215686275 .55686
2745098039 1 81 1 696 1528 695 622 0 672 690 763 772 83 3 765 .3098039215686275
 .556862745098039 1 81 1 672 1619 631 622 696 0 671 673 773 83 3 772 .3098039215
686275 .556862745098039 1 82 1 773 -1902051024 82 1 754 -1888091856 82 1 749 -18
96873680 82 1 745 -1906966224 82 1 743 -1910308560 82 1 740 1372586288 82 1 737
 1373372720 82 1 734 1373831472 82 1 731 1403978032 82 1 728 1405223216 82 1 722
 336462121 83 3 702 .3098039215686275 .556862745098039 1 83 3 697 .3098039215686
275 .556862745098039 1 79 14 694 SWEntUnchanged82 1 689 -1894579920 82 1 685 -18
93531344 82 1 680 -1908014800 82 1 676 -1902575312 82 1 669 -1901526736 82 1 657
 329908516 82 1 652 335544617 82 1 646 1411186985 82 1 634 -1910832848 17 172 26
0 265 55 170 259 374 0 269 -17 352 609 361 370 50 214 350 0 0 +17 513 509 510 16
3 47 387 385 0 378 -17 574 579 483 577 77 460 458 0 0 -17 49 535 178 169 47 510
 304 0 513 -16 304 721 0 ?510 270 261 300 270 261 1 16 261 729 0 ?241 304 251 30
0 304 270 1 19 17 95 0 1 0 10 6 S74 20 15 3 0 710 2 698 0 0 0 0 0 0 0 0 0 0 0 0
 0 0 0 0 0 80 2 13 774 775 8004 0 0 0 0 3 5 0 0 FFTFFFFFFFFFF2 3 83 1 14 1 79 16
 775 SDL/TYSA_DENSITY1 0 
